<svg xmlns="http://www.w3.org/2000/svg" viewBox="0 0 960 540">
<defs>
<linearGradient id="field" x1="0" x2="0" y1="0" y2="1"><stop offset="0" stop-color="#2f8f52"/><stop offset=".55" stop-color="#176b3d"/><stop offset="1" stop-color="#0d442b"/></linearGradient>
<radialGradient id="glove" cx=".35" cy=".25" r=".75"><stop offset="0" stop-color="#fff4bc"/><stop offset=".48" stop-color="#ffd660"/><stop offset="1" stop-color="#ff5d5d"/></radialGradient>
</defs>
<rect width="960" height="540" fill="url(#field)"/>
<g opacity=".18" fill="#d9f7c7"><rect x="0" width="48" height="540"/><rect x="144" width="48" height="540"/><rect x="288" width="48" height="540"/><rect x="432" width="48" height="540"/><rect x="576" width="48" height="540"/><rect x="720" width="48" height="540"/><rect x="864" width="48" height="540"/></g>
<rect x="84" y="26" width="792" height="488" fill="none" stroke="#f5f9de" stroke-width="5" opacity=".74"/>
<rect x="168" y="46" width="624" height="186" rx="12" fill="#081914" opacity=".68"/>
<g stroke="#f4f6e6" opacity=".42"><path d="M190 64v142M222 64v142M254 64v142M286 64v142M318 64v142M350 64v142M382 64v142M414 64v142M446 64v142M478 64v142M510 64v142M542 64v142M574 64v142M606 64v142M638 64v142M670 64v142M702 64v142M734 64v142M766 64v142"/><path d="M190 64h580M190 88h580M190 112h580M190 136h580M190 160h580M190 184h580M190 206h580"/></g>
<rect x="190" y="64" width="580" height="142" fill="none" stroke="#fff6d6" stroke-width="12"/>
<rect x="182" y="56" width="596" height="158" fill="none" stroke="#a87939" stroke-width="4"/>
<circle cx="505" cy="245" r="72" fill="url(#glove)" stroke="#fff" stroke-width="5" opacity=".96"/>
<rect x="468" y="230" width="74" height="30" rx="8" fill="#081410" opacity=".26"/>
<circle cx="536" cy="181" r="17" fill="#f8f5e9"/>
<path d="M524 181h24M536 169v24" stroke="#111" stroke-width="3"/>
<g transform="translate(480 508)">
<rect x="-18" y="-72" width="36" height="58" rx="15" fill="#1c2530"/>
<circle cy="-88" r="17" fill="#ffd9a0"/>
<path d="M-10-16-42 34M10-16 38 30" stroke="#0e161b" stroke-width="8" stroke-linecap="round"/>
</g>
<rect x="20" y="18" width="316" height="48" rx="8" fill="#020c09" opacity=".68"/>
<text x="38" y="49" fill="#fff6d6" font-family="Avenir,Verdana,sans-serif" font-size="22" font-weight="800">SCORE 800</text>
<text x="196" y="49" fill="#ffd660" font-family="Avenir,Verdana,sans-serif" font-size="22" font-weight="800">BEST 1200</text>
<rect x="708" y="18" width="232" height="48" rx="8" fill="#020c09" opacity=".68"/>
<text x="724" y="49" fill="#bdf58a" font-family="Avenir,Verdana,sans-serif" font-size="22" font-weight="800">SAVES 8</text>
<text x="848" y="49" fill="#ff8d7f" font-family="Avenir,Verdana,sans-serif" font-size="22" font-weight="800">GOALS 2/5</text>
</svg>
