<svg xmlns="http://www.w3.org/2000/svg" width="300" height="200" viewBox="0 0 300 200">
  <defs>
    <linearGradient id="dishGrad-FishandChips" x1="0%" y1="0%" x2="100%" y2="100%">
      <stop offset="0%" stop-color="#0f172a" />
      <stop offset="100%" stop-color="#334155" />
    </linearGradient>
  </defs>
  
  <rect x="5" y="5" width="290" height="190" rx="16" fill="url(#dishGrad-FishandChips)" stroke="#475569" stroke-width="2" />
  
  <g transform="translate(150, 80)">
    
      <ellipse cx="0" cy="20" rx="60" ry="15" fill="#e2e8f0" stroke="#cbd5e1" stroke-width="2" />
      <rect x="-35" y="8" width="10" height="20" rx="2" fill="#fbbf24" transform="rotate(15)" />
      <rect x="-15" y="5" width="8" height="24" rx="2" fill="#fbbf24" transform="rotate(-5)" />
      <rect x="5" y="8" width="9" height="22" rx="2" fill="#fbbf24" transform="rotate(30)" />
      <rect x="25" y="6" width="8" height="20" rx="2" fill="#fbbf24" transform="rotate(-15)" />
      <path d="M -45,15 Q 0,-5 45,15" fill="none" stroke="#78350f" stroke-width="6" stroke-linecap="round" opacity="0.8" />
      <circle cx="-10" cy="12" r="5" fill="#f8fafc" stroke="#cbd5e1" />
      <circle cx="15" cy="14" r="5" fill="#f8fafc" stroke="#cbd5e1" />
    
  </g>
  
  <rect x="15" y="140" width="270" height="48" rx="8" fill="#000000" fill-opacity="0.65" stroke="#475569" stroke-opacity="0.5" />
  <text x="150" y="157" font-family="'Outfit', sans-serif" font-size="12" font-weight="800" fill="#ffffff" text-anchor="middle">Fish and Chips</text>
  <text x="150" y="172" font-family="'Outfit', sans-serif" font-size="8" font-weight="500" fill="#cbd5e1" text-anchor="middle">Crispy battered fish fillets served with hot fries.</text>
  <text x="35" y="169" font-family="'Outfit', sans-serif" font-size="18" text-anchor="middle">🏴󠁧󠁢󠁥󠁮󠁧󠁿</text>
</svg>