<svg xmlns="http://www.w3.org/2000/svg" width="300" height="200" viewBox="0 0 300 200">
  <defs>
    <linearGradient id="dishGrad-Hng" x1="0%" y1="0%" x2="100%" y2="100%">
      <stop offset="0%" stop-color="#0f172a" />
      <stop offset="100%" stop-color="#334155" />
    </linearGradient>
  </defs>
  
  <rect x="5" y="5" width="290" height="190" rx="16" fill="url(#dishGrad-Hng)" stroke="#475569" stroke-width="2" />
  
  <g transform="translate(150, 85)">
    <ellipse cx="0" cy="25" rx="65" ry="12" fill="#1e293b" opacity="0.6" />
    <ellipse cx="0" cy="20" rx="60" ry="15" fill="#e2e8f0" stroke="#cbd5e1" stroke-width="2" />
    <path d="M -50,15 C -30,45 30,45 50,15 Z" fill="#f59e0b" opacity="0.85" />
    <circle cx="-15" cy="18" r="8" fill="#10b981" />
    <circle cx="15" cy="22" r="7" fill="#ef4444" />
    <circle cx="0" cy="12" r="10" fill="#f59e0b" />
    <path d="M -40,15 C -40,-25 40,-25 40,15 Z" fill="none" stroke="#f1f5f9" stroke-width="2" opacity="0.15" />
    <path d="M -20,-10 Q -15,-20 -20,-30 T -20,-45" fill="none" stroke="#ffffff" stroke-width="2" stroke-linecap="round" opacity="0.4" />
    <path d="M 0,-10 Q 5,-20 0,-30 T 0,-45" fill="none" stroke="#ffffff" stroke-width="2" stroke-linecap="round" opacity="0.6" />
    <path d="M 20,-10 Q 25,-20 20,-30 T 20,-45" fill="none" stroke="#ffffff" stroke-width="2" stroke-linecap="round" opacity="0.4" />
  </g>
  
  <rect x="15" y="145" width="270" height="40" rx="8" fill="#000000" fill-opacity="0.6" stroke="#475569" stroke-opacity="0.5" />
  <text x="150" y="169" font-family="'Outfit', sans-serif" font-size="13" font-weight="700" fill="#ffffff" text-anchor="middle">Hāngī</text>
  <text x="35" y="170" font-family="'Outfit', sans-serif" font-size="16" text-anchor="middle">🇳🇿</text>
</svg>