<svg xmlns="http://www.w3.org/2000/svg" width="300" height="200" viewBox="0 0 300 200">
  <defs>
    <linearGradient id="dishGrad-Kebab" x1="0%" y1="0%" x2="100%" y2="100%">
      <stop offset="0%" stop-color="#0f172a" />
      <stop offset="100%" stop-color="#334155" />
    </linearGradient>
  </defs>
  
  <rect x="5" y="5" width="290" height="190" rx="16" fill="url(#dishGrad-Kebab)" stroke="#475569" stroke-width="2" />
  
  <g transform="translate(150, 80)">
    
      <ellipse cx="0" cy="24" rx="65" ry="12" fill="#334155" opacity="0.5" />
      <ellipse cx="0" cy="18" rx="60" ry="15" fill="#f1f5f9" stroke="#cbd5e1" stroke-width="2" />
      <path d="M -45,10 C -30,35 30,35 45,10 Z" fill="#d97706" opacity="0.9" />
      <ellipse cx="0" cy="8" rx="35" ry="8" fill="#eab308" />
      <circle cx="-10" cy="8" r="4" fill="#22c55e" />
      <circle cx="10" cy="10" r="4" fill="#ef4444" />
      <path d="M -10,-5 Q -5,-15 -10,-25" fill="none" stroke="#ffffff" stroke-width="2" opacity="0.5" />
      <path d="M 10,-5 Q 15,-15 10,-25" fill="none" stroke="#ffffff" stroke-width="2" opacity="0.5" />
    
  </g>
  
  <rect x="15" y="140" width="270" height="48" rx="8" fill="#000000" fill-opacity="0.65" stroke="#475569" stroke-opacity="0.5" />
  <text x="150" y="157" font-family="'Outfit', sans-serif" font-size="12" font-weight="800" fill="#ffffff" text-anchor="middle">Kebab</text>
  <text x="150" y="172" font-family="'Outfit', sans-serif" font-size="8" font-weight="500" fill="#cbd5e1" text-anchor="middle">Skewered grilled meat seasoned with Middle East spices.</text>
  <text x="35" y="169" font-family="'Outfit', sans-serif" font-size="18" text-anchor="middle">🇹🇷</text>
</svg>