<svg xmlns="http://www.w3.org/2000/svg" width="200" height="280" viewBox="0 0 200 280">
  <defs>
    <linearGradient id="cardGrad-CucoMartina" x1="0%" y1="0%" x2="100%" y2="100%">
      <stop offset="0%" stop-color="#cbd5e1" />
      <stop offset="100%" stop-color="#1e293b" />
    </linearGradient>
    <linearGradient id="jerseyGrad-CucoMartina" x1="0%" y1="0%" x2="0%" y2="100%">
      <stop offset="0%" stop-color="#1e3a8a" />
      <stop offset="100%" stop-color="#eab308" />
    </linearGradient>
  </defs>
  
  <rect x="5" y="5" width="190" height="270" rx="16" fill="url(#cardGrad-CucoMartina)" stroke="#94a3b8" stroke-width="3" />
  
  <path d="M 5,60 L 195,60 M 5,210 L 195,210" stroke="#94a3b8" stroke-width="1" opacity="0.2" />
  <circle cx="100" cy="130" r="45" fill="none" stroke="#94a3b8" stroke-width="1" opacity="0.15" />
  
  <text x="25" y="32" font-family="'Outfit', sans-serif" font-size="18" text-anchor="middle">🇨🇼</text>
  <rect x="135" y="18" width="45" height="18" rx="4" fill="#94a3b8" />
  <text x="157.5" y="30" font-family="'Outfit', sans-serif" font-size="8" font-weight="800" fill="#0f172a" text-anchor="middle">LEGEND</text>
  
  <g transform="translate(0, 20)">
    <circle cx="100" cy="90" r="14" fill="#ffffff" fill-opacity="0.9" />
    <path d="M 85,110 Q 100,105 115,110 L 112,160 L 88,160 Z" fill="url(#jerseyGrad-CucoMartina)" />
    <path d="M 88,160 L 80,205 L 94,208 L 98,160" fill="#1e3a8a" />
    <path d="M 112,160 L 120,205 L 106,208 L 102,160" fill="#1e3a8a" />
    <path d="M 85,110 L 70,135 L 78,140 L 90,118" fill="url(#jerseyGrad-CucoMartina)" />
    <path d="M 115,110 L 130,135 L 122,140 L 110,118" fill="url(#jerseyGrad-CucoMartina)" />
    <circle cx="135" cy="205" r="7" fill="#ffffff" stroke="#000000" stroke-width="1" />
  </g>
  
  <rect x="15" y="220" width="170" height="45" rx="8" fill="#000000" fill-opacity="0.5" stroke="#94a3b8" stroke-opacity="0.3" />
  <text x="100" y="240" font-family="'Outfit', sans-serif" font-size="11" font-weight="800" fill="#ffffff" text-anchor="middle">Cuco Martina</text>
  <text x="100" y="254" font-family="'Outfit', sans-serif" font-size="8" font-weight="600" fill="#cbd5e1" text-anchor="middle" letter-spacing="1">LEGEND</text>
</svg>