<svg xmlns="http://www.w3.org/2000/svg" width="200" height="280" viewBox="0 0 200 280">
  <defs>
    <linearGradient id="cardGrad-LandonDonovan" x1="0%" y1="0%" x2="100%" y2="100%">
      <stop offset="0%" stop-color="#cbd5e1" />
      <stop offset="100%" stop-color="#1e293b" />
    </linearGradient>
    <linearGradient id="jerseyGrad-LandonDonovan" x1="0%" y1="0%" x2="0%" y2="100%">
      <stop offset="0%" stop-color="#1e3a8a" />
      <stop offset="100%" stop-color="#ef4444" />
    </linearGradient>
  </defs>
  
  <rect x="5" y="5" width="190" height="270" rx="16" fill="url(#cardGrad-LandonDonovan)" stroke="#94a3b8" stroke-width="3" />
  
  <path d="M 5,60 L 195,60 M 5,210 L 195,210" stroke="#94a3b8" stroke-width="1" opacity="0.2" />
  <circle cx="100" cy="130" r="45" fill="none" stroke="#94a3b8" stroke-width="1" opacity="0.15" />
  
  <text x="25" y="32" font-family="'Outfit', sans-serif" font-size="18" text-anchor="middle">🇺🇸</text>
  <rect x="135" y="18" width="45" height="18" rx="4" fill="#94a3b8" />
  <text x="157.5" y="30" font-family="'Outfit', sans-serif" font-size="8" font-weight="800" fill="#0f172a" text-anchor="middle">FWD</text>
  
  <text x="25" y="52" font-family="'Outfit', sans-serif" font-size="16" font-weight="800" fill="#ffffff" text-anchor="middle">90</text>
  
  <g transform="translate(0, 20)">
    <circle cx="100" cy="90" r="14" fill="#ffffff" fill-opacity="0.9" />
    <path d="M 85,110 L 70,110 L 45,135 L 58,145 L 75,130 L 75,175 L 125,175 L 125,130 L 142,145 L 155,135 L 130,110 L 115,110 Z" fill="url(#jerseyGrad-LandonDonovan)" />
    <text x="100" y="162" font-family="'Outfit', sans-serif" font-size="7" font-weight="800" fill="#ffffff" text-anchor="middle">DONOVAN</text>
    <text x="100" y="150" font-family="'Outfit', sans-serif" font-size="18" font-weight="900" fill="#ffffff" text-anchor="middle">21</text>
  </g>
  
  <rect x="15" y="220" width="170" height="45" rx="8" fill="#000000" fill-opacity="0.5" stroke="#94a3b8" stroke-opacity="0.3" />
  <text x="100" y="238" font-family="'Outfit', sans-serif" font-size="11" font-weight="800" fill="#ffffff" text-anchor="middle">Landon Donovan</text>
  
  <g transform="translate(20, 245)" font-family="'Outfit', sans-serif" font-size="7" font-weight="700" fill="#cbd5e1" text-anchor="middle">
    <text x="10" y="5">PAC</text><text x="10" y="13" fill="#ffffff">93</text>
    <text x="38" y="5">SHO</text><text x="38" y="13" fill="#ffffff">94</text>
    <text x="66" y="5">PAS</text><text x="66" y="13" fill="#ffffff">78</text>
    <text x="94" y="5">DRI</text><text x="94" y="13" fill="#ffffff">91</text>
    <text x="122" y="5">DEF</text><text x="122" y="13" fill="#ffffff">45</text>
    <text x="150" y="5">PHY</text><text x="150" y="13" fill="#ffffff">80</text>
  </g>
</svg>